<svg version="1.2" xmlns="http://www.w3.org/2000/svg" viewBox="0 0 16 16" width="16" height="16">
	<title>Github-22-svg</title>
	<style>
		.s0 { fill: #ffffff } 
	</style>
	<g id="Layer">
		<path id="Layer" class="s0" d="m8 0.3c-4.5 0-8 3.5-8 8 0 5.2 4.8 7.5 5.5 7.5 0.5 0 0.5-0.3 0.5-0.6v-1.2c-1.8 0.5-2.5-0.5-2.8-1.3 0 0 0-0.2-0.5-0.7-0.2-0.3-1.2-0.8-0.2-0.8 0.7 0 1.2 1.1 1.2 1.1 0.8 0.9 1.8 0.7 2.3 0.4 0-0.5 0.5-1 0.5-1-2-0.2-3.5-1-3.5-3.7q0-1.5 0.8-2.3c0 0-0.6-1 0-2.2 0 0 1.2 0 2.2 1 0.7-0.5 3.3-0.5 4 0 1-1 2.3-1 2.3-1 0.5 1.8 0 2.3 0 2.3q0.7 0.7 0.7 2.2c0 2.8-1.8 3.5-3.5 3.8 0.3 0.2 0.5 0.7 0.5 1.5v2c0 0.2 0 0.5 0.5 0.5 0.8 0 5.5-2.3 5.5-7.5 0-4.5-3.5-8-8-8z"/>
	</g>
</svg>